<?xml version="1.0" encoding="utf-8"?>
<!-- Generator: Adobe Illustrator 19.0.0, SVG Export Plug-In . SVG Version: 6.00 Build 0)  -->
<svg version="1.1" id="Layer_1" xmlns="http://www.w3.org/2000/svg" xmlns:xlink="http://www.w3.org/1999/xlink" x="0px" y="0px"
	 viewBox="0 0 194.5 173" style="enable-background:new 0 0 194.5 173;" xml:space="preserve">
<style type="text/css">
	.st0{fill:none;stroke:#FDB73F;stroke-width:6;stroke-miterlimit:10;}
	.st1{fill:none;stroke:#FDB73F;stroke-width:4;stroke-miterlimit:10;}
	.st2{fill:none;stroke:#FDB73F;stroke-width:3;stroke-miterlimit:10;}
</style>
<path id="XMLID_160_" class="st0" d="M140.9,50.3c4.3-7.2,5.6-16.1,2.9-24.7c-5-16.3-22.3-25.4-38.6-20.4c-6.7,2.1-12.2,6.3-16,11.6
	C76.5,8,64.3,9,48.4,13.9c-27.7,8.5-47.5,33.7-39,61.4c2,6.6,5.3,12.5,9.4,17.5c-11.3,7-16.9,20.9-12.8,34.2
	c4.9,15.8,21.6,24.7,37.4,19.8c5.7-1.7,10.4-5,14-9.2c9.1,10,23.5,14.5,37.3,10.3c8.4-2.6,15.2-8,19.6-14.8c8.4,2.9,17.8,3.3,27,0.5
	c23-7.1,35.9-31.4,28.8-54.4C165.6,64.8,154.3,54.4,140.9,50.3z"/>
<circle id="XMLID_14_" class="st1" cx="159.9" cy="149.6" r="12.3"/>
<circle id="XMLID_16_" class="st2" cx="183.7" cy="163.3" r="6.2"/>
</svg>
