<?xml version="1.0" encoding="utf-8"?>
<!-- Generator: Adobe Illustrator 19.0.0, SVG Export Plug-In . SVG Version: 6.00 Build 0)  -->
<svg version="1.1" id="Layer_1" xmlns="http://www.w3.org/2000/svg" xmlns:xlink="http://www.w3.org/1999/xlink" x="0px" y="0px"
	 viewBox="-547.2 336.8 72.2 94.5" style="enable-background:new -547.2 336.8 72.2 94.5;" xml:space="preserve">
<style type="text/css">
	.st0{fill:#5BA7DC;}
	.st1{fill:none;stroke:#5BA7DC;stroke-width:4;stroke-linecap:round;stroke-linejoin:round;stroke-miterlimit:10;}
</style>
<g>
	<path class="st0" d="M-495,383h-32c-1.1,0-2-0.9-2-2s0.9-2,2-2h32c1.1,0,2,0.9,2,2S-493.9,383-495,383z"/>
</g>
<g>
	<path class="st0" d="M-495,394h-32c-1.1,0-2-0.9-2-2s0.9-2,2-2h32c1.1,0,2,0.9,2,2S-493.9,394-495,394z"/>
</g>
<g>
	<path class="st0" d="M-509,371h-18c-1.1,0-2-0.9-2-2s0.9-2,2-2h18c1.1,0,2,0.9,2,2S-507.9,371-509,371z"/>
</g>
<line class="st1" x1="-527" y1="403" x2="-495" y2="403"/>
<path class="st0" d="M-476,359c0-0.6-0.3-1.2-0.8-1.6l-18.8-18.9c-0.5-0.5-1.3-0.7-2-0.5H-544c-1.1,0-2,0.9-2,2v88c0,1.1,0.9,2,2,2
	h66c1.1,0,2-0.9,2-2v-68c0-0.2,0-0.3-0.1-0.5C-476,359.3-476,359.2-476,359z M-495,344.8l12.2,12.2H-495V344.8z M-542,426v-84h43v17
	c0,1.1,0.9,2,2,2h17v65H-542z"/>
</svg>
