<?xml version="1.0" encoding="utf-8"?>
<!-- Generator: Adobe Illustrator 19.0.0, SVG Export Plug-In . SVG Version: 6.00 Build 0)  -->
<svg version="1.1" id="Layer_1" xmlns="http://www.w3.org/2000/svg" xmlns:xlink="http://www.w3.org/1999/xlink" x="0px" y="0px"
	 viewBox="-1114.2 731.5 187.5 145.5" style="enable-background:new -1114.2 731.5 187.5 145.5;" xml:space="preserve">
<style type="text/css">
	.st0{fill:none;stroke:#FFFFFF;stroke-width:10;stroke-miterlimit:10;}
	.st1{fill:#FFFFFF;}
	.st2{fill:#5BA7DC;}
	.st3{font-family:'ProximaNova-Regular';}
	.st4{font-size:103.2995px;}
</style>
<ellipse class="st0" cx="-1023.4" cy="807.2" rx="81.3" ry="63.3"/>
<path class="st1" d="M-1092.5,840.7c0,0,6,14.4-15.7,24.6c-21.4,10.2,39.2-5.5,39.2-5.5L-1092.5,840.7z"/>
<circle class="st1" cx="-952.8" cy="758.3" r="24.6"/>
<g>
	<path class="st2" d="M-952.9,740.8c1.8,0,3,1.3,3,3l-1.3,19.2c0,1-0.8,1.8-1.8,1.8s-1.8-0.8-1.8-1.8l-1.3-19.2
		C-956,742.3-954.7,740.8-952.9,740.8z M-952.9,768.7c1.8,0,3,1.3,3,3c0,1.8-1.3,3-3,3c-1.8,0-3-1.3-3-3
		C-956,770.2-954.7,768.7-952.9,768.7z"/>
</g>
<text transform="matrix(1 0 0 1 -1062.139 818.1173)" class="st1 st3 st4">...</text>
</svg>
