<?xml version="1.0" encoding="utf-8"?>
<!-- Generator: Adobe Illustrator 19.0.0, SVG Export Plug-In . SVG Version: 6.00 Build 0)  -->
<svg version="1.1" id="Layer_1" xmlns="http://www.w3.org/2000/svg" xmlns:xlink="http://www.w3.org/1999/xlink" x="0px" y="0px"
	 viewBox="-545.1 356.8 71.9 55" style="enable-background:new -545.1 356.8 71.9 55;" xml:space="preserve">
<style type="text/css">
	.st0{fill:none;stroke:#5BA7DC;stroke-width:3;stroke-miterlimit:10;}
	.st1{fill:#5BA7DC;}
	.st2{fill:#FFFFFF;}
	.st3{font-family:'MyriadPro-Regular';}
	.st4{font-size:39.5018px;}
</style>
<ellipse class="st0" cx="-510.1" cy="385.3" rx="31.1" ry="24.2"/>
<path class="st1" d="M-536.5,398.1c0,0,2.3,5.5-6,9.4c-8.2,3.9,15-2.1,15-2.1L-536.5,398.1z"/>
<circle class="st1" cx="-483.1" cy="366.6" r="9.4"/>
<g>
	<path class="st2" d="M-483.1,359.4c0.7,0,1.2,0.5,1.2,1.2l-0.5,7.6c0,0.4-0.3,0.7-0.7,0.7s-0.7-0.3-0.7-0.7l-0.5-7.6
		C-484.3,360-483.8,359.4-483.1,359.4z M-483.1,370.5c0.7,0,1.2,0.5,1.2,1.2c0,0.7-0.5,1.2-1.2,1.2c-0.7,0-1.2-0.5-1.2-1.2
		C-484.3,371.1-483.8,370.5-483.1,370.5z"/>
</g>
<text transform="matrix(1 0 0 1 -524.8989 389.4741)" class="st1 st3 st4">...</text>
</svg>
