<?xml version="1.0" encoding="utf-8"?>
<!-- Generator: Adobe Illustrator 19.0.0, SVG Export Plug-In . SVG Version: 6.00 Build 0)  -->
<svg version="1.1" id="Layer_1" xmlns="http://www.w3.org/2000/svg" xmlns:xlink="http://www.w3.org/1999/xlink" x="0px" y="0px"
	 viewBox="0 0 89.3 77" style="enable-background:new 0 0 89.3 77;" xml:space="preserve">
<style type="text/css">
	.st0{fill:#FFFFFF;}
</style>
<path id="XMLID_8_" class="st0" d="M77.9,35.1c3.1-2.9,5.1-7,5.1-11.5c0-8.6-7-15.7-15.7-15.7c-3.6,0-6.9,1.2-9.5,3.2
	C53,5,45.5,1,37,1C22.3,1,10.4,12.9,10.4,27.6c0,3.5,0.7,6.8,1.9,9.9C5.8,39.2,1,45.1,1,52.2c0,8.4,6.8,15.2,15.2,15.2
	c3,0,5.8-0.9,8.2-2.4c2.9,6.2,9.2,10.5,16.6,10.5c4.5,0,8.6-1.6,11.7-4.3c3.6,2.7,8.1,4.3,13,4.3c12.2,0,22.1-9.9,22.1-22.1
	C87.7,45.8,83.8,39,77.9,35.1z M59.4,46.4c-0.5,1.7-1.4,3.2-2.5,4.6l-0.2,0.3l-0.2,0.2l-0.2,0.2C56.2,51.9,56.1,52,56,52
	c-0.2,0.2-0.3,0.3-0.5,0.5c-0.2,0.2-0.3,0.3-0.5,0.4c-0.7,0.6-1.4,1.1-2.2,1.6c-1.5,0.9-3.2,1.5-5.1,1.9s-3.7,0.3-5.5,0
	c-1.4-0.3-2.7-0.7-4-1.4l-1.2,1.4l-0.2-5l5-0.3l-1.4,1.5c0.8,0.4,1.6,0.7,2.4,1c1.4,0.4,3,0.6,4.5,0.4c1.5-0.1,3-0.5,4.4-1.2
	c0.7-0.3,1.4-0.7,2-1.2c0.1-0.1,0.3-0.2,0.4-0.4c0.2-0.1,0.3-0.2,0.4-0.4c0.1-0.1,0.2-0.1,0.2-0.2l0.2-0.2l0.2-0.2l0.2-0.2
	c1-1.1,1.9-2.5,2.5-4c0.6-1.4,0.9-3.1,1-4.7c0-1.3-0.1-2.5-0.4-3.7l0.4-0.4c0.5,1.3,0.8,2.7,0.9,4.2C60.1,43,59.9,44.8,59.4,46.4z
	 M57.4,31.1l2.1-2.9c-1.5-0.5-2.9-1-4.4-1.2c-2.6-0.4-5.3-0.4-7.9,0.1c-2.7,0.5-5.1,1.5-7.5,3c-1.2,0.7-2.3,1.5-3.3,2.5
	c-0.2,0.2-0.5,0.5-0.7,0.7c-0.3,0.2-0.5,0.5-0.7,0.7c-0.2,0.1-0.3,0.2-0.4,0.4l-0.3,0.4l-0.3,0.4l-0.3,0.4c-1.6,2.2-2.9,4.7-3.7,7.4
	c-0.8,2.6-1.1,5.5-0.9,8.3c0.2,2.2,0.7,4.4,1.5,6.4l-0.6,0.8c-1.1-2.2-1.9-4.6-2.3-7.1c-0.5-2.9-0.5-6.1,0.2-9
	c0.6-3,1.8-5.9,3.5-8.5l0.3-0.5l0.3-0.5l0.3-0.5c0.1-0.2,0.2-0.3,0.3-0.5c0.2-0.3,0.5-0.6,0.7-0.9c0.2-0.3,0.5-0.6,0.8-0.9
	c1.1-1.1,2.2-2.2,3.5-3.1c2.5-1.9,5.4-3.3,8.4-4.2c3.1-0.9,6.3-1.2,9.5-1c2.4,0.2,4.9,0.8,7.2,1.7l1.9-2.7l1.2,8.7L57.4,31.1z"/>
</svg>
