<?xml version="1.0" encoding="utf-8"?>
<!-- Generator: Adobe Illustrator 19.0.0, SVG Export Plug-In . SVG Version: 6.00 Build 0)  -->
<svg version="1.1" id="Layer_1" xmlns="http://www.w3.org/2000/svg" xmlns:xlink="http://www.w3.org/1999/xlink" x="0px" y="0px"
	 viewBox="-533 364 157 65" style="enable-background:new -533 364 157 65;" xml:space="preserve">
<style type="text/css">
	.st0{fill:#FFFFFF;}
	.st1{font-family:'NexaBold';}
	.st2{font-size:39.8861px;}
	.st3{font-family:'ProximaNova-Bold';}
	.st4{font-size:38.9586px;}
</style>
<g id="XMLID_118_">
	<g id="XMLID_125_">
		<g id="XMLID_126_">
			<path id="XMLID_127_" class="st0" d="M-516.2,420.9c-2.4-1.4-4.5-3.1-6.2-5.2c-1.7-2.1-3-4.5-3.9-6.9l-0.2-0.5l-0.2-0.5l-0.2-0.5
				c-0.1-0.2-0.1-0.3-0.1-0.5c0-0.2-0.1-0.5-0.1-0.8c-0.1-0.3-0.1-0.6-0.2-0.9c-0.2-1.3-0.2-2.6-0.2-3.9c0.1-2.6,0.6-5.1,1.7-7.5
				c1-2.4,2.4-4.5,4.1-6.4c1-1.1,2.2-2,3.4-2.9l1.2,3.3l3.5-7.7l-7.6-3.7l1.1,2.9c-1.9,1.3-3.7,3-5.2,4.8c-1.9,2.4-3.4,5.2-4.4,8.1
				s-1.4,6-1.2,9c0.1,1.5,0.3,3,0.6,4.5c0.1,0.4,0.2,0.7,0.3,1.1c0.1,0.4,0.2,0.7,0.3,1.1c0.1,0.2,0.1,0.4,0.2,0.5l0.2,0.5l0.2,0.5
				l0.1,0.5c1.2,2.8,2.9,5.2,4.9,7.4c2,2.1,4.5,3.8,7.1,5c2.2,1,4.5,1.7,6.9,2l-0.3-0.9C-512.4,422.7-514.4,421.9-516.2,420.9z"/>
		</g>
	</g>
	<text id="XMLID_124_" transform="matrix(1 0 0 1 -513.047 393.3441)" class="st0 st1 st2">THINK</text>
	<text transform="matrix(1 0 0 1 -511.048 427.1029)" class="st0 st3 st4">T</text>
	<text transform="matrix(1 0 0 1 -487.948 427.1029)" class="st0 st3 st4">W</text>
	<text transform="matrix(1 0 0 1 -454.948 427.1029)" class="st0 st3 st4">I</text>
	<text transform="matrix(1 0 0 1 -445.848 427.1029)" class="st0 st3 st4">C</text>
	<text transform="matrix(1 0 0 1 -419.348 427.1029)" class="st0 st3 st4">E</text>
	<g id="XMLID_119_">
		<g id="XMLID_120_">
			<path id="XMLID_121_" class="st0" d="M-384.8,393.7c1.3,0.9,2.4,2,3.2,3.3s1.5,2.7,1.8,4.2l0.1,0.3l0.1,0.3l0.1,0.3
				c0,0.1,0,0.2,0,0.3c0,0.2,0.1,0.4,0,0.5c0,0.2,0,0.4,0,0.5c0,0.7,0,1.5-0.1,2.2c-0.2,1.5-0.7,2.9-1.4,4.2
				c-0.7,1.3-1.7,2.4-2.7,3.4c-0.7,0.6-1.3,1-2.1,1.4l-0.5-1.9l-2.4,4.2l4.1,2.6l-0.4-1.7c1.2-0.6,2.3-1.5,3.3-2.4
				c1.3-1.3,2.2-2.7,3-4.4c0.7-1.6,1.1-3.3,1.2-5c0.1-0.9,0-1.7-0.1-2.6c0-0.2,0-0.4-0.1-0.6c0-0.2-0.1-0.4-0.1-0.6
				c0-0.1,0-0.2-0.1-0.3l-0.1-0.3l-0.1-0.3l-0.1-0.3c-0.5-1.6-1.3-3.1-2.4-4.5c-1-1.3-2.3-2.4-3.7-3.3c-1.2-0.7-2.5-1.2-3.8-1.5
				l0.1,0.3C-386.9,392.4-385.8,393-384.8,393.7z"/>
		</g>
	</g>
</g>
</svg>
