<?xml version="1.0" encoding="utf-8"?>
<!-- Generator: Adobe Illustrator 19.0.0, SVG Export Plug-In . SVG Version: 6.00 Build 0)  -->
<svg version="1.1" id="Layer_1" xmlns="http://www.w3.org/2000/svg" xmlns:xlink="http://www.w3.org/1999/xlink" x="0px" y="0px"
	 viewBox="-561 345.8 152.2 74.1" style="enable-background:new -561 345.8 152.2 74.1;" xml:space="preserve">
<style type="text/css">
	.st0{fill:#5BA7DC;}
</style>
<path class="st0" d="M-511,421.1c0.2-0.2,0.1-0.6,0-0.8C-510.9,420.5-510.8,420.8-511,421.1z"/>
<path class="st0" d="M-496.5,418.7c-0.1,0.2-0.5,0.3-1,0.3c-0.1,0-0.2,0-0.4,0c-0.4,0-1,0-1.8,0c-0.4,0-0.9,0-1.4,0
	c-0.8,0-1.9,0-3.2,0c-1.9,0-4.1,0-6.2,0c-3.7,0-7.2,0-9.5,0c-0.6,0-1.1,0-1.5,0c-1.3,0-2.3,0-2.8-0.1c-0.1,0-0.2,0-0.2,0
	c-0.1,0-0.2,0-0.2,0c-1.7-0.2-0.4-1.6-0.4-1.6s2.1-1.6,3.1-3.3c0,0,0.3,0,0.6-2.5c0.4-3.6,0.8-6.4,0.8-6.4h19.3c0,0,0.3,2.8,0.8,6.4
	c0.3,2.5,0.6,2.5,0.6,2.5c1,1.5,2.9,3.1,3.1,3.3c0,0,0,0,0,0s0.1,0.1,0.2,0.2C-496.5,417.9-496.2,418.4-496.5,418.7z"/>
<path class="st0" d="M-511.1,419.8c0.1,0.1,0.1,0.2,0.2,0.3C-511,420-511,419.9-511.1,419.8z"/>
<path class="st0" d="M-510.9,405.9c-3.2,0-44.5,0.1-46.6,0c-2.1-0.1-2.2-2.2-2.2-2.2v-54.9c0-1.8,2.2-1.9,2.2-1.9h46.1h0.6h46.1
	c0,0,2.2,0.1,2.2,1.9v54.9c0,0-0.2,2.1-2.2,2.2C-466.5,406.1-506.2,406-510.9,405.9 M-466.1,350.5h-89.7v50.8h89.7L-466.1,350.5
	L-466.1,350.5z"/>
<g>
	<path class="st0" d="M-418.9,346.8h-24c-4.9,0-8.8,4-8.8,8.9v54.4c0,4.9,3.9,8.9,8.8,8.9h24c4.9,0,8.8-4,8.8-8.9v-54.4
		C-410.1,350.8-414,346.8-418.9,346.8z M-430.9,414.4c-2.4,0-4.3-1.9-4.3-4.3s1.9-4.3,4.3-4.3c2.4,0,4.3,1.9,4.3,4.3
		S-428.5,414.4-430.9,414.4z M-415.5,402.3h-30.7v-45.5h30.7C-415.5,356.8-415.5,402.3-415.5,402.3z"/>
</g>
</svg>
