<?xml version="1.0" encoding="utf-8"?>
<!-- Generator: Adobe Illustrator 19.0.0, SVG Export Plug-In . SVG Version: 6.00 Build 0)  -->
<svg version="1.1" id="Layer_1" xmlns="http://www.w3.org/2000/svg" xmlns:xlink="http://www.w3.org/1999/xlink" x="0px" y="0px"
	 viewBox="0 0 157 65" style="enable-background:new 0 0 157 65;" xml:space="preserve">
<style type="text/css">
	.st0{fill:#F0532D;}
	.st1{font-family:'NexaBold';}
	.st2{font-size:39.8861px;}
	.st3{fill:#FDB740;}
	.st4{font-family:'ProximaNova-Bold';}
	.st5{font-size:38.9586px;}
	.st6{letter-spacing:-1;}
</style>
<g id="XMLID_2_">
	<g id="XMLID_118_">
		<g id="XMLID_125_">
			<g id="XMLID_126_">
				<path id="XMLID_127_" class="st0" d="M16.8,56.9c-2.4-1.4-4.5-3.1-6.2-5.2c-1.7-2.1-3-4.5-3.9-6.9l-0.2-0.5l-0.2-0.5l-0.2-0.5
					c-0.1-0.2-0.1-0.3-0.1-0.5C6,42.6,5.9,42.3,5.9,42c-0.1-0.3-0.1-0.6-0.2-0.9c-0.2-1.3-0.2-2.6-0.2-3.9c0.1-2.6,0.6-5.1,1.7-7.5
					c1-2.4,2.4-4.5,4.1-6.4c1-1.1,2.2-2,3.4-2.9l1.2,3.3l3.5-7.7l-7.6-3.7l1.1,2.9c-1.9,1.3-3.7,3-5.2,4.8c-1.9,2.4-3.4,5.2-4.4,8.1
					s-1.4,6-1.2,9c0.1,1.5,0.3,3,0.6,4.5c0.1,0.4,0.2,0.7,0.3,1.1s0.2,0.7,0.3,1.1c0.1,0.2,0.1,0.4,0.2,0.5l0.2,0.5l0.2,0.5L4,45.8
					c1.2,2.8,2.9,5.2,4.9,7.4c2,2.1,4.5,3.8,7.1,5c2.2,1,4.5,1.7,6.9,2l-0.3-0.9C20.6,58.7,18.6,57.9,16.8,56.9z"/>
			</g>
		</g>
		<text id="XMLID_124_" transform="matrix(1 0 0 1 21.953 29.3441)" class="st0 st1 st2">THINK</text>
		<text id="XMLID_123_" transform="matrix(1 0 0 1 21.952 63.1029)"><tspan x="0" y="0" class="st3 st4 st5">T</tspan><tspan x="23.1" y="0" class="st3 st4 st5">W</tspan><tspan x="58.1" y="0" class="st3 st4 st5 st6">I</tspan><tspan x="67.2" y="0" class="st3 st4 st5">C</tspan><tspan x="93.7" y="0" class="st3 st4 st5">E</tspan></text>
		<g id="XMLID_119_">
			<g id="XMLID_120_">
				<path id="XMLID_121_" class="st3" d="M148.2,29.7c1.3,0.9,2.4,2,3.2,3.3c0.8,1.3,1.5,2.7,1.8,4.2l0.1,0.3l0.1,0.3l0.1,0.3
					c0,0.1,0,0.2,0,0.3c0,0.2,0.1,0.4,0,0.5c0,0.2,0,0.4,0,0.5c0,0.7,0,1.5-0.1,2.2c-0.2,1.5-0.7,2.9-1.4,4.2
					c-0.7,1.3-1.7,2.4-2.7,3.4c-0.7,0.6-1.3,1-2.1,1.4l-0.5-1.9l-2.4,4.2l4.1,2.6l-0.4-1.7c1.2-0.6,2.3-1.5,3.3-2.4
					c1.3-1.3,2.2-2.7,3-4.4c0.7-1.6,1.1-3.3,1.2-5c0.1-0.9,0-1.7-0.1-2.6c0-0.2,0-0.4-0.1-0.6c0-0.2-0.1-0.4-0.1-0.6
					c0-0.1,0-0.2-0.1-0.3l-0.1-0.3l-0.1-0.3l-0.1-0.3c-0.5-1.6-1.3-3.1-2.4-4.5c-1-1.3-2.3-2.4-3.7-3.3c-1.2-0.7-2.5-1.2-3.8-1.5
					L145,28C146.1,28.4,147.2,29,148.2,29.7z"/>
			</g>
		</g>
	</g>
</g>
</svg>
