<?xml version="1.0" encoding="utf-8"?>
<!-- Generator: Adobe Illustrator 19.0.0, SVG Export Plug-In . SVG Version: 6.00 Build 0)  -->
<svg version="1.1" id="Layer_1" xmlns="http://www.w3.org/2000/svg" xmlns:xlink="http://www.w3.org/1999/xlink" x="0px" y="0px"
	 viewBox="0 0 177.7 150" style="enable-background:new 0 0 177.7 150;" xml:space="preserve">
<style type="text/css">
	.st0{fill:#FFFFFF;}
	.st1{font-family:'NexaBold';}
	.st2{font-size:30.3105px;}
	.st3{font-family:'NexaLight';}
	.st4{font-size:29.2012px;}
	.st5{letter-spacing:-1;}
</style>
<g id="XMLID_20_">
	<g id="XMLID_287_">
		<g id="XMLID_295_">
			<g id="XMLID_296_">
				<g id="XMLID_297_">
					<path id="XMLID_298_" class="st0" d="M48.8,98.7c-1.8-1-3.4-2.4-4.7-3.9c-1.3-1.6-2.3-3.4-3-5.2l-0.1-0.4l-0.1-0.4l-0.1-0.4
						c-0.1-0.1-0.1-0.2-0.1-0.4c-0.1-0.2-0.1-0.5-0.1-0.7c-0.1-0.2-0.1-0.5-0.1-0.7c-0.2-1-0.2-2-0.2-3c0.1-2,0.5-3.9,1.3-5.7
						c0.7-1.8,1.9-3.4,3.1-4.8c0.8-0.8,1.6-1.5,2.6-2.2l0.9,2.5l2.7-5.8L45,64.7l0.8,2.2c-1.5,1-2.8,2.3-4,3.7
						c-1.5,1.9-2.6,3.9-3.3,6.2c-0.7,2.2-1.1,4.6-0.9,6.8c0,1.2,0.2,2.3,0.5,3.4c0.1,0.3,0.1,0.6,0.2,0.8c0.1,0.3,0.2,0.5,0.2,0.8
						c0.1,0.1,0.1,0.3,0.1,0.4l0.1,0.4l0.1,0.4l0.2,0.4c0.9,2.1,2.2,4,3.7,5.6c1.5,1.6,3.4,2.9,5.4,3.8c1.7,0.7,3.4,1.3,5.2,1.5
						l-0.2-0.7C51.8,100.1,50.2,99.5,48.8,98.7z"/>
				</g>
			</g>
		</g>
		<text id="XMLID_294_" transform="matrix(1 0 0 1 52.7769 77.7842)" class="st0 st1 st2">THINK</text>
		<text id="XMLID_293_" transform="matrix(1 0 0 1 52.7759 103.4375)"><tspan x="0" y="0" class="st0 st3 st4">T</tspan><tspan x="18.1" y="0" class="st0 st3 st4">W</tspan><tspan x="48" y="0" class="st0 st3 st4 st5">I</tspan><tspan x="52.9" y="0" class="st0 st3 st4">C</tspan><tspan x="72.3" y="0" class="st0 st3 st4">E</tspan></text>
		<g id="XMLID_288_">
			<g id="XMLID_289_">
				<g id="XMLID_290_">
					<path id="XMLID_291_" class="st0" d="M148.7,78c1,0.7,1.8,1.6,2.4,2.5c0.6,1,1.1,2.1,1.4,3.2l0,0.2l0,0.2l0,0.2
						c0,0.1,0,0.1,0,0.2c0,0.1,0,0.3,0,0.4c0,0.1,0,0.3,0,0.4c0,0.6,0,1.1-0.1,1.7c-0.2,1.1-0.5,2.2-1.1,3.2c-0.5,1-1.3,1.8-2.1,2.6
						c-0.5,0.4-1,0.8-1.6,1.1l-0.4-1.5l-1.9,3.2l3.1,2l-0.3-1.3c0.9-0.5,1.7-1.1,2.5-1.9c1-1,1.7-2.1,2.3-3.3s0.9-2.5,0.9-3.8
						c0-0.7,0-1.3-0.1-2c0-0.2,0-0.3-0.1-0.5c0-0.2-0.1-0.3-0.1-0.5c0-0.1,0-0.2-0.1-0.2l-0.1-0.2l-0.1-0.2l-0.1-0.2
						c-0.4-1.2-1-2.4-1.8-3.4c-0.8-1-1.8-1.9-2.8-2.5c-0.9-0.5-1.9-0.9-2.9-1.2l0.1,0.4C147.2,77.1,148,77.5,148.7,78z"/>
				</g>
			</g>
		</g>
	</g>
</g>
<g id="XMLID_2_">
	<g id="XMLID_177_">
		<path id="XMLID_178_" class="st0" d="M156.3,66.2c2.8-2.7,5.1-6,6.7-9.5c1.6-3.5,2.5-7.4,2.7-11.2c0-0.5,0-1,0-1.4
			c0-0.2,0-0.5,0-0.7l-0.1-0.7l-0.1-1.5c0-0.5-0.1-1-0.2-1.4c-0.2-0.9-0.3-1.9-0.5-2.8c-0.3-0.9-0.5-1.9-0.8-2.7
			c-0.4-0.9-0.7-1.8-1.1-2.7c-0.4-0.8-0.8-1.7-1.3-2.5c-0.5-0.8-1-1.6-1.5-2.4c-0.6-0.7-1.1-1.5-1.8-2.2c-0.7-0.7-1.3-1.4-2-2.1
			c-0.7-0.6-1.4-1.3-2.1-1.9c-0.8-0.5-1.5-1.1-2.3-1.6c-0.8-0.5-1.6-1-2.4-1.4l-2.6-1.2l-2.7-0.9l-2.7-0.6l-2.8-0.4
			c-0.9-0.1-1.9-0.1-2.8-0.1l-0.3,0l-0.1,0c0,0,0,0-0.1,0l-0.2,0l-0.7,0c-0.5,0-0.9,0.1-1.4,0.1c-1.8,0.2-3.7,0.5-5.5,1.1
			c-3.6,1-6.9,2.8-9.8,5.1l-1.4,1.1l-1.2-1.4c-1.8-2.2-3.9-4.2-6.1-6c-2.2-1.7-4.7-3.2-7.3-4.2c-2.6-1.1-5.4-1.8-8.2-2.3
			C90.9,7,88,6.7,85.1,6.6c-1.5-0.1-2.9-0.1-4.4-0.1l-2.2,0l-2.2,0.1c-2.9,0.1-5.7,0.4-8.6,0.9c-2.8,0.5-5.6,1.2-8.4,2.1
			c-2.7,0.9-5.4,1.9-8,3.2c-5.1,2.5-9.8,5.9-13.8,9.9c-3.9,4.1-7.1,8.8-9,14.1c-1,2.6-1.7,5.3-2.1,8.1c-0.4,2.8-0.6,5.6-0.4,8.4
			c0.1,2.8,0.5,5.6,1.1,8.4c0.6,2.8,1.4,5.5,2.5,8.1l1.2,3l-3.2,1c-1.9,0.6-3.7,1.2-5.4,2.1c-0.9,0.4-1.7,1-2.5,1.5
			c-0.4,0.3-0.8,0.6-1.2,0.8c-0.4,0.3-0.8,0.6-1.1,0.9L16.4,80l-1,1c-0.7,0.7-1.3,1.5-1.9,2.2c-1.1,1.6-2.3,3.2-3.1,4.9
			c-0.5,0.8-0.8,1.8-1.1,2.7c-0.2,0.5-0.3,0.9-0.4,1.4c-0.1,0.5-0.3,0.9-0.4,1.4L8.1,95C8,95.5,8,96,7.9,96.5
			c-0.2,1-0.2,1.9-0.2,2.9l0,0.4l0,0.1l0,0c0,0,0-0.3,0-0.1l0,0.1l0,0.2l0,0.8l0.1,1.6c0,0.3,0,0.5,0.1,0.7l0.1,0.7l0.2,1.4
			c0.2,0.9,0.5,1.9,0.7,2.8c0.4,0.9,0.6,1.8,1,2.7c0.8,1.8,1.7,3.5,2.9,5l0.9,1.2c0.3,0.4,0.6,0.7,1,1.1c0.3,0.4,0.6,0.7,1,1.1
			l1.1,1c1.4,1.3,3,2.4,4.7,3.4c0.8,0.5,1.7,0.9,2.6,1.3c0.9,0.3,1.8,0.7,2.7,1c0.9,0.2,1.9,0.5,2.8,0.7l1.4,0.2
			c0.5,0.1,1,0.2,1.4,0.2l1.5,0.1l0.7,0l0.8,0c0.5,0,0.9,0,1.4-0.1c0.5,0,1-0.1,1.4-0.2c3.8-0.5,7.6-1.9,10.9-4l2.7-1.7l1.4,2.8
			c0.6,1.1,1.1,2.3,1.8,3.3c0.3,0.6,0.7,1.1,1,1.6c0.4,0.5,0.7,1.1,1.1,1.5c0.4,0.5,0.8,1,1.2,1.5l1.3,1.4c0.9,0.9,1.8,1.8,2.8,2.6
			c0.5,0.4,1,0.8,1.5,1.2c0.5,0.4,1,0.8,1.6,1.1l1.6,1l1.7,0.9c0.6,0.3,1.2,0.5,1.7,0.8c0.6,0.3,1.2,0.5,1.8,0.7
			c1.2,0.5,2.4,0.8,3.7,1.1c1.2,0.2,2.5,0.5,3.8,0.6l0.9,0.1l1,0c0.6,0,1.3,0.1,1.9,0.1c1.5,0,2.5-0.1,3.9-0.2
			c1.3-0.2,2.5-0.4,3.8-0.7c5-1.1,9.7-3.5,13.7-6.7l1.5-1.2l1.5,1.1c4.4,3.3,9.4,5.7,14.7,7c2.7,0.7,5.4,1.1,8.1,1.2l1,0l0.3,0
			l0.1,0l0,0c-0.2,0,0,0-0.1,0l0.1,0l0.5,0l2.2-0.1c1.5,0,2.8-0.2,4.1-0.4c1.3-0.1,2.7-0.5,4-0.8c1.4-0.3,2.6-0.8,3.9-1.2
			c1.3-0.4,2.6-1,3.8-1.6c1.3-0.5,2.4-1.3,3.6-2c2.4-1.4,4.6-3.1,6.6-5c0.3-0.2,0.5-0.5,0.8-0.7l0.7-0.8l1.4-1.5
			c0.5-0.5,0.9-1,1.3-1.6l1.3-1.7c0.5-0.5,0.8-1.1,1.2-1.7l1.1-1.8c0.7-1.2,1.3-2.5,1.9-3.7c0.6-1.3,1-2.6,1.6-3.9
			c0.4-1.3,0.8-2.7,1.2-4c0.3-1.4,0.5-2.8,0.8-4.1c0.2-1.4,0.2-2.8,0.3-4.2l0-0.5l0-0.5l0-1.1c0-0.7,0-1.4-0.1-2.1
			c-0.1-0.7-0.1-1.4-0.2-2.1l-0.3-2.1C172.2,83.2,165.7,72.8,156.3,66.2z M156.3,66.2c2.4,1.6,4.7,3.3,6.8,5.3c2.1,2,4,4.2,5.7,6.6
			c1.7,2.4,3.1,4.9,4.3,7.6c1.1,2.7,2,5.5,2.7,8.4l0.4,2.2c0.1,0.7,0.2,1.5,0.3,2.2c0.1,0.7,0.1,1.5,0.2,2.2l0.1,1.1l0,0.6l0,0.6
			c-0.1,1.5-0.1,3-0.2,4.4c-0.2,1.5-0.4,2.9-0.6,4.4c-0.4,1.4-0.6,2.9-1.1,4.3c-0.5,1.4-0.9,2.8-1.5,4.2c-0.6,1.3-1.2,2.7-1.9,4
			l-1.1,1.9c-0.4,0.6-0.7,1.3-1.2,1.9l-1.3,1.8c-0.4,0.6-0.9,1.2-1.4,1.8l-1.5,1.7l-0.7,0.8c-0.3,0.3-0.5,0.5-0.8,0.8
			c-2.1,2.1-4.5,4-7,5.6c-1.3,0.8-2.5,1.6-3.9,2.3c-1.3,0.7-2.7,1.4-4.1,1.9c-1.4,0.5-2.8,1.1-4.3,1.5c-1.5,0.4-2.9,0.8-4.4,1
			c-1.5,0.3-3.1,0.5-4.5,0.6l-2.2,0.1l-0.5,0l-0.1,0l-0.2,0l-0.3,0l-1.1,0c-3-0.1-6-0.5-9-1.1c-5.9-1.3-11.5-3.9-16.5-7.4l2.9-0.1
			c-4.5,3.8-9.8,6.6-15.5,8c-1.4,0.4-2.9,0.6-4.3,0.8c-1.4,0.2-3.1,0.3-4.4,0.3c-0.8,0-1.5,0-2.2,0l-1.1,0l-1.1-0.1
			c-1.5-0.1-2.9-0.4-4.4-0.7c-1.4-0.4-2.9-0.7-4.3-1.2c-0.7-0.2-1.4-0.5-2.1-0.8c-0.7-0.3-1.4-0.5-2-0.9l-2-1l-1.9-1.1
			c-0.6-0.4-1.2-0.8-1.8-1.2c-0.6-0.4-1.2-0.9-1.8-1.3c-1.2-0.9-2.2-1.9-3.3-2.9l-1.5-1.6c-0.5-0.5-0.9-1.1-1.4-1.7
			c-0.5-0.6-0.9-1.2-1.3-1.8c-0.4-0.6-0.9-1.2-1.2-1.8c-0.8-1.2-1.5-2.6-2.2-3.9l4.1,1.2c-2,1.3-4.1,2.3-6.3,3.2
			c-2.2,0.8-4.5,1.4-6.9,1.7c-0.6,0.1-1.2,0.1-1.8,0.2c-0.6,0.1-1.3,0.1-1.8,0.1l-0.8,0c-0.4,0-0.6,0-0.9,0l-1.8-0.1
			c-0.6,0-1.2-0.1-1.8-0.2l-1.8-0.3c-1.2-0.2-2.3-0.5-3.4-0.8c-1.1-0.4-2.2-0.8-3.3-1.2c-1.1-0.5-2.2-1-3.2-1.6
			c-2-1.2-4-2.5-5.8-4.1l-1.3-1.2c-0.4-0.4-0.8-0.9-1.2-1.3c-0.4-0.4-0.8-0.9-1.2-1.3L8,119.2c-1.4-1.9-2.6-4-3.6-6.1
			c-0.5-1.1-0.8-2.2-1.3-3.3c-0.3-1.1-0.6-2.3-0.9-3.4L2,104.5l-0.1-0.9c-0.1-0.3-0.1-0.6-0.1-0.9l-0.1-1.6l0-0.8l0-0.2l0-0.1l0-0.2
			l0-0.1l0-0.4c0-1.2,0.1-2.4,0.3-3.5C2,95.1,2.1,94.5,2.2,94l0.4-1.7c0.1-0.6,0.3-1.1,0.5-1.7c0.2-0.6,0.3-1.1,0.5-1.7
			C4,87.7,4.4,86.6,5,85.5c1-2.2,2.3-4.1,3.8-6c0.8-0.9,1.5-1.8,2.4-2.6c0.4-0.4,0.8-0.8,1.3-1.2l1.4-1.1c0.4-0.4,0.9-0.7,1.4-1.1
			c0.5-0.3,1-0.7,1.4-1c1-0.6,2-1.3,3.1-1.8c2.1-1.1,4.3-1.9,6.6-2.5l-2,3.9c-1.2-2.9-2.1-6-2.8-9.1c-0.7-3.1-1.1-6.2-1.2-9.4
			c-0.1-3.1,0-6.3,0.5-9.5c0.5-3.2,1.3-6.3,2.5-9.2c2.3-6,5.9-11.4,10.4-15.9c4.5-4.5,9.7-8.1,15.4-10.8c5.7-2.7,11.7-4.5,17.8-5.5
			c3.1-0.5,6.2-0.8,9.3-0.8l2.2,0l2.3,0c1.5,0,3.1,0.1,4.6,0.2c3.1,0.2,6.1,0.6,9.2,1.2c3.1,0.6,6.1,1.5,9,2.8c2.9,1.3,5.6,3,8.1,5
			c2.4,2,4.6,4.3,6.5,6.8l-2.6-0.3c3.3-2.5,7.1-4.3,11.1-5.4c2-0.5,4-0.9,6.1-1c0.5,0,1.1-0.1,1.6-0.1l0.7,0l0.2,0l0.1,0l0.1,0
			l0.4,0c1,0.1,2.1,0.1,3.1,0.2c1,0.2,2,0.3,3,0.5l3,0.8l2.9,1.1l2.7,1.4c0.9,0.5,1.7,1.1,2.6,1.6c0.8,0.6,1.6,1.2,2.4,1.9
			c0.8,0.7,1.5,1.4,2.2,2.1c0.7,0.7,1.4,1.5,2,2.3c0.6,0.8,1.2,1.6,1.8,2.5c0.6,0.8,1,1.7,1.6,2.6c0.5,0.9,0.9,1.8,1.3,2.7
			c0.4,0.9,0.7,1.9,1,2.9c0.3,1,0.5,2,0.7,2.9c0.2,1,0.3,2,0.4,3c0.1,0.5,0.1,1,0.1,1.5l0,1.5l0,0.7c0,0.3,0,0.5,0,0.8
			c0,0.5,0,1-0.1,1.5c-0.3,4-1.5,7.9-3.3,11.4C161.7,60.4,159.2,63.6,156.3,66.2z"/>
	</g>
</g>
</svg>
